<?xml version="1.0" standalone="no"?>
<!DOCTYPE svg PUBLIC "-//W3C//DTD SVG 1.1//EN" "http://www.w3.org/Graphics/SVG/1.1/DTD/svg11.dtd" >
<svg xmlns="http://www.w3.org/2000/svg" xmlns:xlink="http://www.w3.org/1999/xlink" version="1.1">
<metadata></metadata>
<defs>
<font id="garderegular" horiz-adv-x="905" >
<font-face units-per-em="1000" ascent="750" descent="-250" />
<missing-glyph horiz-adv-x="500" />
<glyph horiz-adv-x="0" />
<glyph horiz-adv-x="333" />
<glyph unicode=" "  horiz-adv-x="500" />
<glyph unicode="&#x09;" horiz-adv-x="500" />
<glyph unicode="&#xa0;" horiz-adv-x="500" />
<glyph unicode="!" horiz-adv-x="376" d="M1 838h234v-528h-235v371h78v-293h78v372l-155 -1v79zM118 235q24 0 45.5 -9.5t37.5 -25.5t25.5 -37.5t9.5 -45.5t-9.5 -45.5t-25.5 -37.5t-37.5 -25t-45.5 -9t-45.5 9t-37.5 25t-25 37.5t-9 45.5t9 45.5t25 37.5t37.5 25.5t45.5 9.5zM118 78q17 0 28 11.5t11 27.5 q0 17 -11 28t-28 11q-16 0 -27.5 -11t-11.5 -28q0 -16 11.5 -27.5t27.5 -11.5z" />
<glyph unicode="&#x22;" horiz-adv-x="665" d="M192 519q19 -15 29.5 -36t12.5 -43.5t-4.5 -45t-21.5 -40.5l-100 -121h-100l70 85q-20 8 -35 20q-19 15 -29.5 36t-13 43.5t4.5 45t22 40.5q15 19 36 29.5t43.5 12.5t45 -4.5t40.5 -21.5zM87 453q-10 -12 -8.5 -28t14.5 -26q12 -11 28 -9.5t26 14.5q11 13 9.5 28.5 t-14.5 26.5q-13 10 -28.5 8.5t-26.5 -14.5zM482 519q19 -15 29.5 -36t12.5 -43.5t-4.5 -45t-21.5 -40.5l-99 -121h-101l70 85q-19 7 -35 20q-20 15 -30 36t-12 43.5t4.5 45t21.5 40.5q15 19 36 29.5t43.5 12.5t45 -4.5t40.5 -21.5zM377 453q-10 -12 -8.5 -28t14.5 -26 q12 -11 28 -9.5t26 14.5q11 13 9.5 28.5t-14.5 26.5q-12 10 -28 8.5t-27 -14.5z" />
<glyph unicode="$" horiz-adv-x="909" d="M192 461q-15 1 -25.5 12t-10.5 27q0 15 10.5 26t25.5 12h500q0 32 -22 54.5t-54 22.5l-193 1v138h-77v-138h-157v-1q-23 -1 -43.5 -10t-35.5 -24.5t-24 -36t-9 -44.5q0 -45 29 -77.5t72 -37.5h416q37 -3 69 -19.5t55.5 -42.5t37 -60t13.5 -71q0 -40 -15 -75t-41.5 -61 t-61.5 -41t-75 -15h-76v-136h-231v136h-119q-31 0 -58.5 12t-47.5 32t-32 47.5t-12 58.5v81h41h89t117.5 -0.5t126.5 -0.5h115.5h84.5q16 0 27.5 -11t11.5 -27t-11.5 -27t-27.5 -11h-497q0 -35 23 -56t52 -21h194v-142h77v140h153q24 0 45 9.5t36.5 25.5t25 37t9.5 45 q0 45 -29.5 77t-71.5 38h-399q-38 0 -72.5 13.5t-61 38.5t-42.5 61t-16 80q0 40 15 75t41 61t61 41t75 15h77v135h231v-135h118q31 0 58.5 -12t48 -32t32.5 -48t12 -59v-80h-574h-3z" />
<glyph unicode="%" horiz-adv-x="1493" d="M273 693q24 0 45.5 -9t37.5 -25t25 -37.5t9 -45.5t-9 -45.5t-25 -37.5t-37.5 -25t-45.5 -9t-45.5 9t-37.5 25t-25 37.5t-9 45.5t9 45.5t25 37.5t37.5 25t45.5 9zM273 537q16 0 27.5 11.5t11.5 27.5q0 17 -11.5 28t-27.5 11q-17 0 -28 -11t-11 -28q0 -16 11 -27.5 t28 -11.5zM273 849q57 0 106.5 -21.5t86.5 -58.5t58.5 -86.5t21.5 -106.5t-21.5 -106.5t-58.5 -86.5t-86.5 -58.5t-106.5 -21.5t-106.5 21.5t-86.5 58.5t-58.5 86.5t-21.5 106.5t21.5 106.5t58.5 86.5t86.5 58.5t106.5 21.5zM273 380q40 0 76 15.5t62.5 42t42 62t15.5 76.5 t-15.5 77t-42 62.5t-62.5 42t-76 15.5q-41 0 -77 -15.5t-62.5 -42t-42 -62.5t-15.5 -77t15.5 -76.5t42 -62t62.5 -42t77 -15.5zM1120 239q24 0 45.5 -9.5t37.5 -25t25 -37t9 -45.5t-9 -45.5t-25 -37.5t-37.5 -25.5t-45.5 -9.5t-45.5 9.5t-37.5 25.5t-25 37.5t-9 45.5t9 45.5 t25 37t37.5 25t45.5 9.5zM1120 83q16 0 27.5 11t11.5 28q0 16 -11.5 27t-27.5 11t-27.5 -11t-11.5 -27q0 -17 11.5 -28t27.5 -11zM1120 394q57 0 106.5 -21.5t86.5 -58.5t58.5 -86.5t21.5 -105.5q0 -57 -21.5 -106.5t-58.5 -86.5t-86.5 -58.5t-106.5 -21.5t-106.5 21.5 t-86.5 58.5t-58.5 86.5t-21.5 106.5q0 56 21.5 105.5t58.5 86.5t86.5 58.5t106.5 21.5zM1120 -75q41 0 77 15.5t62.5 42t42 62.5t15.5 77q0 40 -15.5 76t-42 62.5t-62.5 42t-77 15.5t-77 -15.5t-62.5 -42t-42 -62.5t-15.5 -76q0 -41 15.5 -77t42 -62.5t62.5 -42t77 -15.5z M1029 684l-486 -825h-270l577 979h270l-46 -78h-179l-487 -822h90l442 746h89z" />
<glyph unicode="&#x26;" horiz-adv-x="876" d="M776 -139h-270l-82 137h-290q-31 0 -55.5 12t-41.5 31t-25.5 43.5t-7.5 50t13 50t36 43.5l387 310q13 11 16.5 25.5t-1 28t-16 23t-29.5 9.5h-94l35 -58l-182 -146l-169 280h88l102 -168l61 48l-73 120h235q43 0 73.5 -24t42.5 -58t3 -71.5t-43 -64.5l-384 -305 q-16 -13 -20 -30.5t1.5 -34t20 -28t35.5 -11.5h327l82 -134h90l-192 316l-61 -49l34 -56h-90l-44 72l182 146z" />
<glyph unicode="'" horiz-adv-x="514" d="M199 761q-23 -19 -31 -51q-5 -30 5 -54q11 -26 35 -41q13 -8 14 -21l12 -69l80 99l2 2q20 20 25 46q8 36 -12 68q-19 31 -56 38q-9 3 -18 3q-30 0 -56 -20zM208 420q-20 5 -23 25l-22 125q-35 27 -50 68q-15 42 -6 85q10 52 53 87q41 34 95 34q15 0 32 -3q60 -13 95 -67 q35 -53 21 -115q-9 -46 -42 -77l-121 -151q-11 -12 -24 -12q-5 0 -8 1z" />
<glyph unicode="(" horiz-adv-x="478" d="M338 837v-234h-87q-13 0 -13 -14v-481q0 -13 13 -13h87v-234h-141q-41 0 -77 15.5t-62.5 42t-42 62.5t-15.5 77v617q0 33 12.5 62.5t34.5 51.5t51.5 35t62.5 13h21v-78h-26q-32 0 -55 -23t-23 -55h1v-630q0 -23 9 -43.5t24 -35.5t35.5 -24t43.5 -9h69v78h-47 q-23 0 -38.5 15.5t-15.5 38.5v556q0 23 15.5 38.5t38.5 15.5h47v156h78z" />
<glyph unicode=")" horiz-adv-x="478" d="M78 837v-156h47q23 0 38.5 -15.5t15.5 -38.5v-556q0 -23 -15.5 -38.5t-38.5 -15.5h-47v-78h69q23 0 43.5 9t35.5 24t24 35.5t9 43.5v630h1q0 32 -23 55t-55 23h-26v78h21q33 0 62.5 -13t51.5 -35t34.5 -51.5t12.5 -62.5v-617q0 -41 -15.5 -77t-42 -62.5t-62.5 -42 t-77 -15.5h-141v234h87q13 0 13 13v481q0 14 -13 14h-87v234h78z" />
<glyph unicode="+" horiz-adv-x="904" d="M687 467h77v-234h-265v-233h-233v233h-266v234h266v234h233v-234h110v-78h-187v234h-78v-234h-266v-78l266 1v-1v-233h78v233v1l265 -1v156z" />
<glyph unicode="," horiz-adv-x="375" d="M192 213q19 -15 29.5 -36t12.5 -43.5t-4.5 -45t-21.5 -40.5l-100 -121h-100l70 85q-17 5 -35 20q-19 15 -29.5 36t-13 43.5t4.5 45t22 40.5q15 19 36 29.5t43.5 12.5t45 -4.5t40.5 -21.5zM87 147q-10 -13 -8.5 -28.5t14.5 -26.5q12 -10 28 -8.5t26 14.5q11 12 9.5 28 t-14.5 26q-13 11 -28.5 9t-26.5 -14z" />
<glyph unicode="-" d="M765 233h-765v234h609v-78h-532v-78h610v156h78v-234z" />
<glyph unicode="." horiz-adv-x="376" d="M118 235q24 0 45.5 -9.5t37.5 -25.5t25.5 -37.5t9.5 -45.5t-9.5 -45.5t-25.5 -37.5t-37.5 -25t-45.5 -9t-45.5 9t-37.5 25t-25 37.5t-9 45.5t9 45.5t25 37.5t37.5 25.5t45.5 9.5zM118 78q17 0 28 11.5t11 27.5q0 17 -11 28t-28 11q-16 0 -27.5 -11t-11.5 -28 q0 -16 11.5 -27.5t27.5 -11.5z" />
<glyph unicode="/" horiz-adv-x="947" d="M667 684h89l-486 -825h-270l577 979h270l-46 -78h-179l-487 -822h90z" />
<glyph unicode="0" horiz-adv-x="906" d="M435 545q37 -3 69.5 -19.5t56.5 -43t37.5 -60.5t13.5 -71q0 -39 -14 -73t-38.5 -60.5t-58 -42.5t-71.5 -19h-95q-38 3 -71 19t-57.5 42.5t-38.5 60.5t-14 73q0 37 13.5 71t37.5 60.5t56 43t70 19.5h104zM430 234q45 6 74.5 38.5t29.5 78.5q0 45 -29.5 78t-74.5 37h-95 q-45 -4 -74.5 -37t-29.5 -78q0 -46 29.5 -78.5t74.5 -38.5h95zM430 701q70 -3 131.5 -31.5t107 -76t71.5 -110t26 -133.5t-26 -133t-71.5 -109.5t-107 -76t-131.5 -31.5h-95q-70 3 -131 31.5t-106.5 76t-71.5 109.5t-26 133t26 133.5t71.5 110t106.5 76t131 31.5h95zM430 78 q54 3 101 25.5t81.5 59t54.5 85t20 102.5q0 55 -20 103t-54.5 85t-81.5 59.5t-101 25.5h-95q-54 -3 -100.5 -25.5t-81.5 -59.5t-55 -85t-20 -103q0 -54 20 -102.5t55 -85t81.5 -59t100.5 -25.5h95z" />
<glyph unicode="1" horiz-adv-x="513" d="M0 623v78h373v-701h-234v545h78v-467h78v545h-295z" />
<glyph unicode="2" horiz-adv-x="907" d="M767 234v-234h-767v195l433 272h-428v234h567q52 0 96.5 -26t70 -68.5t27.5 -96.5t-31 -111q-8 -12 -29 -29t-44 -32q-13 -9 -27.5 -18t-30.5 -18h-137q17 11 33 21t33 20q28 17 58.5 37t54.5 37q12 8 22 23t14 27q9 27 6 54.5t-16.5 50t-35.5 37t-51 14.5h-502v-78h489 q16 -1 25 -11t11 -22.5t-4 -24.5t-21 -18l-505 -326v-65h611v78h-444l125 78h397z" />
<glyph unicode="3" horiz-adv-x="907" d="M767 506q0 -48 -21 -88.5t-56 -67.5q35 -26 56 -66.5t21 -88.5q0 -41 -15.5 -76.5t-41.5 -61.5t-62 -41.5t-76 -15.5h-572v234h572q16 -1 26.5 -12t10.5 -27t-10.5 -27t-26.5 -12h-494v-78h494q24 0 45.5 9t37 25t25 37.5t9.5 45.5q0 42 -24.5 72.5t-62.5 40.5 q-3 2 -19.5 2.5t-30.5 0.5h-382v79h403q19 0 27 2q38 9 63.5 40.5t25.5 73.5q0 24 -9.5 45.5t-25 37.5t-37 25t-45.5 9h-494v-78h494q16 -1 26.5 -12t10.5 -27t-10.5 -27t-26.5 -12h-572v234h572q40 0 76 -15.5t62 -42t41.5 -62t15.5 -75.5z" />
<glyph unicode="4" d="M531 701h234v-701h-234v154h-531v127l213 420h263l-120 -235v1h-88l80 156h-88l-182 -355v-36h532v-154h77v545h-77v-312h-422l41 77h302v313z" />
<glyph unicode="5" horiz-adv-x="907" d="M590 390q37 -3 69.5 -19.5t56.5 -43t37.5 -60.5t13.5 -72q0 -41 -15.5 -76.5t-41.5 -61.5t-62 -41.5t-76 -15.5h-572v234h572q16 -1 26.5 -12t10.5 -27t-10.5 -27t-26.5 -12h-494v-78h494q24 0 45.5 9t37 25t25 37.5t9.5 45.5q0 22 -8 42t-21.5 36t-32.5 26t-40 13h-587 v389h767v-234h-572q-16 1 -26.5 12t-10.5 27t10.5 27t26.5 12h494v78h-610v-233h511z" />
<glyph unicode="6" horiz-adv-x="907" d="M590 389q37 -3 69.5 -19.5t56.5 -42.5t37.5 -60t13.5 -72q0 -41 -15.5 -76.5t-41.5 -61.5t-62 -41.5t-76 -15.5h-410q-34 0 -63.5 12.5t-51.5 34.5t-34.5 51.5t-12.5 63.5v341q0 41 15.5 77t42 63t62.5 42.5t77 15.5h409q33 0 62.5 -13t51.5 -35t34.5 -51.5t12.5 -62.5 v-72h-516q-13 0 -13 -14v-219h334q16 -1 26.5 -12t10.5 -27t-10.5 -27t-26.5 -12h-395q-18 0 -18 18v317q0 23 16 38.5t38 15.5h476q0 32 -23 55t-55 23h-420q-23 0 -43.5 -9t-35.5 -24.5t-24 -36t-9 -43.5v-177t-1 -177q0 -32 23 -55t55 -23h416q24 0 45.5 9t37 25t25 37.5 t9.5 45.5q0 22 -8 42t-21.5 36t-32.5 26t-40 13h-272v78h275v-1z" />
<glyph unicode="7" horiz-adv-x="828" d="M0 701h768l-481 -701h-287l270 391h95l-216 -313h94l376 545h-541v-78h394l-53 -76l-419 -2v234z" />
<glyph unicode="8" horiz-adv-x="884" d="M203 234h536q9 -45 -2.5 -87.5t-37.5 -75t-65.5 -52t-85.5 -19.5h-353q-41 0 -76.5 15.5t-61.5 41.5t-41.5 61.5t-15.5 76.5q0 45 19 84t51 65q9 8 17 13t22 13q18 9 35 13t35 5.5t38.5 1.5h44.5h245q22 2 41 12t33 25.5t22.5 35.5t8.5 43q0 46 -29.5 78.5t-73.5 38.5 h-275q-33 -5 -59 -26t-37 -52h357q15 -1 26 -12t11 -27t-11 -27t-26 -12h-437q-4 15 -4 39q0 42 15.5 77.5t41 61t58 40.5t67.5 16h72.5t69 -0.5t70.5 -1t77 -1.5q35 -1 65 -17.5t52.5 -43t35 -61t12.5 -70.5q0 -32 -10 -60.5t-27 -52.5q-22 -30 -48.5 -47.5t-52.5 -25.5 t-46.5 -8.5t-32.5 -0.5h-45h-248q-43 -6 -72.5 -38.5t-29.5 -77.5q0 -23 8.5 -44t23.5 -36.5t35 -25.5t43 -11h348h15t14 1q32 5 57.5 25.5t36.5 51.5h-464q-16 1 -26.5 12t-10.5 27q0 14 8 23.5t20 13.5z" />
<glyph unicode="9" horiz-adv-x="909" d="M177 311q-38 3 -70 19.5t-56 43t-37.5 60.5t-13.5 72q0 40 15.5 75.5t41.5 62t61.5 42t76.5 15.5h412q33 0 62.5 -13t51.5 -35t35 -51.5t13 -62.5v-342q0 -41 -15.5 -77t-42.5 -62.5t-63 -42t-77 -15.5h-409q-34 0 -63.5 12.5t-51.5 34.5t-34.5 51.5t-12.5 63.5v72h517 q14 0 14 14v219h-336q-16 1 -26.5 12t-10.5 27t10.5 27t26.5 12h396q18 0 18 -18v-317q0 -23 -15.5 -38.5t-38.5 -15.5h-477q0 -32 23 -55t55 -23h422q23 0 43.5 9t35.5 24t24 35.5t9 43.5v355h1q0 32 -23 55t-55 23h-418q-24 0 -45.5 -9t-37 -25t-25 -37.5t-9.5 -45.5 q0 -46 29.5 -78.5t73.5 -38.5h273v-78h-277z" />
<glyph unicode=":" horiz-adv-x="237" d="M117 546q24 0 45.5 -9.5t37.5 -25t25.5 -37t9.5 -45.5t-9.5 -45.5t-25.5 -37.5t-37.5 -25.5t-45.5 -9.5t-45.5 9.5t-37.5 25.5t-25 37.5t-9 45.5t9 45.5t25 37t37.5 25t45.5 9.5zM117 390q17 0 28 11t11 28q0 16 -11 27.5t-28 11.5q-16 0 -27.5 -11.5t-11.5 -27.5 q0 -17 11.5 -28t27.5 -11zM117 236q24 0 45.5 -9t37.5 -25t25.5 -37.5t9.5 -45.5t-9.5 -45.5t-25.5 -37.5t-37.5 -25t-45.5 -9t-45.5 9t-37 25t-25 37.5t-9.5 45.5t9.5 45.5t25 37.5t37 25t45.5 9zM117 80q17 0 28 11.5t11 27.5t-11 27.5t-28 11.5q-16 0 -27.5 -11.5 t-11.5 -27.5t11.5 -27.5t27.5 -11.5z" />
<glyph unicode=";" horiz-adv-x="237" d="M117 546q24 0 45.5 -9.5t37.5 -25t25.5 -37t9.5 -45.5t-9.5 -45.5t-25.5 -37.5t-37.5 -25.5t-45.5 -9.5t-45.5 9.5t-37 25.5t-25 37.5t-9.5 45.5t9.5 45.5t25 37t37 25t45.5 9.5zM117 390q17 0 28 11t11 28q0 16 -11 27.5t-28 11.5q-16 0 -27.5 -11.5t-11.5 -27.5 q0 -17 11.5 -28t27.5 -11zM192 213q19 -15 29.5 -36t12.5 -43.5t-4.5 -45t-21.5 -40.5l-100 -121h-100l70 85q-17 5 -35 20q-19 15 -29.5 36t-13 43.5t4.5 45t22 40.5q15 19 36 29.5t43.5 12.5t45 -4.5t40.5 -21.5zM87 147q-10 -13 -8.5 -28.5t14.5 -26.5q12 -10 28 -8.5 t26 14.5q11 12 9.5 28t-14.5 26q-13 11 -28.5 9t-26.5 -14z" />
<glyph unicode="=" d="M0 78v233h609v-78h-532v-78h610v156h78v-233h-765zM0 389v234h77v-156h610v78h-531v78h609v-234h-765z" />
<glyph unicode="?" horiz-adv-x="930" d="M201 119q0 25 9.5 46.5t25.5 37.5t37.5 25.5t45.5 9.5q25 0 46.5 -9.5t37.5 -25.5t25.5 -37.5t9.5 -46.5t-9.5 -46.5t-25.5 -37.5t-37.5 -25.5t-46.5 -9.5q-24 0 -45.5 9.5t-37.5 25.5t-25.5 37.5t-9.5 46.5zM280 119q0 -17 11.5 -28.5t27.5 -11.5q17 0 28.5 11.5 t11.5 28.5t-11.5 28t-28.5 11q-16 0 -27.5 -11t-11.5 -28zM589 611h-589v83q0 31 12 59.5t33 49.5t49.5 33.5t60.5 12.5h437q41 0 77 -15.5t63 -42.5t42.5 -63t15.5 -77q0 -39 -12.5 -74.5t-36 -62.5t-56.5 -43.5t-75 -16.5h-239q-21 0 -39 -11t-32 -25q-7 -7 -10 -21h123 v-82h-222q-4 51 8 91.5t36.5 68.5t61.5 43t82 15h228q45 6 74.5 38.5t29.5 79.5q0 24 -9 45t-25 37t-36.5 25.5t-44.5 10.5v1h-440q-32 0 -54.5 -24t-22.5 -56h513q16 -1 27 -12t11 -27t-11.5 -27.5t-28.5 -12.5h-1z" />
<glyph unicode="A" horiz-adv-x="1040" d="M539 312l136 -234h90q-5 8 -22.5 37.5t-41.5 70.5t-50.5 86.5t-50 86.5t-40.5 70.5t-21 37.5l-196 -340l-73 -127h-270q6 9 26 44.5t49.5 86.5t65.5 113.5t72 125.5q43 75 90 157.5t101 173.5h90l-186 -322l-173 -301h90q46 81 85 148.5t75.5 130.5t73.5 127t80 139 q1 -2 17.5 -30t42 -72t57.5 -100t65.5 -113.5t65.5 -113t57 -98.5t40.5 -69.5l15.5 -26.5h-270l-136 234z" />
<glyph unicode="B" d="M687 350q36 -26 57 -66.5t21 -88.5q0 -41 -15.5 -76.5t-41.5 -61.5t-62 -41.5t-76 -15.5h-570v390h233v-1v-155h337q16 -1 26.5 -12t10.5 -27t-10.5 -27t-26.5 -12h-414v156h-78v-234h492h1q24 0 45 9t37 25t25 37.5t9 45.5q0 23 -8.5 43.5t-23.5 36t-35 25.5t-43 11 h-266v78h263q24 1 44.5 10.5t35.5 25t24 36.5t9 45t-9 45.5t-25 37.5t-37 25t-45 9h-1h-492v-78h492q16 -1 26.5 -12t10.5 -27t-10.5 -27t-26.5 -12h-570v234h570q40 0 76 -15.5t62 -41.5t41.5 -62t15.5 -76q0 -48 -21 -88.5t-57 -67.5z" />
<glyph unicode="C" d="M765 466h-430q-22 -2 -41 -12t-33 -25.5t-22 -36t-8 -42.5q0 -23 8 -42.5t22 -35t33 -25.5t41 -13h274v-78h-274q-38 3 -71 19t-57.5 42.5t-38.5 60.5t-14 73q0 37 13.5 71t37.5 60t56 42.5t70 19.5h356v79h-352v-1q-54 -3 -100.5 -25.5t-81.5 -59t-55 -84.5t-20 -103 q0 -54 20 -102.5t55 -85t81.5 -59t100.5 -25.5h352v156h78v-234h-430q-70 3 -131 31.5t-106.5 76t-71.5 109.5t-26 133t26 133.5t71.5 109.5t106.5 75.5t131 31.5l430 1v-235z" />
<glyph unicode="D" horiz-adv-x="865" d="M430 701q70 -3 131 -31.5t106.5 -76t71.5 -110t26 -132.5q0 -71 -26 -133.5t-71.5 -110t-106.5 -76t-131 -31.5h-430v545h430q38 -3 71 -19t57.5 -42.5t38.5 -60.5t14 -73q0 -38 -13.5 -71.5t-37.5 -60t-56.5 -43t-69.5 -19.5h-278v246h78v-168l196 1q45 4 74.5 37 t29.5 78q0 38 -21.5 67.5t-55.5 42.5q-13 5 -23.5 6t-30.5 1h-325v-389h352q54 3 100.5 25.5t81.5 59t55 85t20 103.5q0 54 -20 102.5t-55 85t-81.5 59t-100.5 25.5h-430v78h430z" />
<glyph unicode="E" d="M765 467h-531v-78h394v-78h-472v234h531v78h-609v-545h609v78h-531v78h609v-234h-765v701h765v-234z" />
<glyph unicode="F" horiz-adv-x="865" d="M765 467h-531v-78h394v-78h-472v234h531v78h-609v-545h78v156h78v-234h-234v701h765v-234z" />
<glyph unicode="G" horiz-adv-x="906" d="M766 390v-390h-431q-70 3 -131 31.5t-106.5 76t-71.5 109.5t-26 133t26 133.5t71.5 110t106.5 76t131 31.5h431v-235h-431q-45 -4 -74.5 -37t-29.5 -78q0 -46 29.5 -78.5t74.5 -38.5h274v-78h-274q-38 3 -71 19t-57.5 42.5t-38.5 60.5t-14 73q0 37 13.5 71t37.5 60.5 t56 43t70 19.5h356v78h-352q-54 -3 -100.5 -25.5t-81.5 -59.5t-55 -85t-20 -103q0 -54 20 -102.5t55 -85t81.5 -59t100.5 -25.5h352v234h-369v78h448z" />
<glyph unicode="H" d="M531 701h234v-701h-234v233h-453v-155h78v78h78v-156h-234v312h610v-234h77v545h-77v-234h-454v234h-78v-234h-78v312h234v-234h297v234z" />
<glyph unicode="I" horiz-adv-x="374" d="M0 0v701h234v-545h-78v467h-78v-545h156v-78h-234z" />
<glyph unicode="J" horiz-adv-x="899" d="M759 701v-335h-1q-3 -77 -33.5 -143.5t-81.5 -116t-119 -78t-145 -28.5q-78 0 -147 30t-120.5 81.5t-81.5 120.5t-30 147v90h333v-76h-255v-14q0 -62 23.5 -117t64.5 -96t96 -64.5t117 -23.5t116.5 23t95 63.5t64.5 94t25 115.5v250h-75v-247q0 -47 -18 -87.5t-49 -71 t-72 -48t-87 -17.5q-39 0 -74 12.5t-63.5 34.5t-49 52t-30.5 65h81q17 -39 53.5 -63.5t82.5 -24.5q31 0 58.5 12t47.5 32t32 47.5t12 58.5v322h230z" />
<glyph unicode="K" horiz-adv-x="903" d="M442 295l321 -295h-345l-262 240l406 383h-113l-293 -283v283h-78v-545h138l86 -78h-302v701h234v-172l184 172h341l-489 -460l178 -163h115l-178 164z" />
<glyph unicode="L" horiz-adv-x="909" d="M78 234h691v-234h-769v78h692v78h-692v545h234v-390h-78v312h-78v-389z" />
<glyph unicode="M" horiz-adv-x="1084" d="M696 701h248v-701h-234v262l-149 -262h-179l-227 398v147l273 -467h88l272 467v-467h78v545h-125l-271 -468l-267 468h-125v-545h77v147l78 -134v-91h-233v701h248l224 -397z" />
<glyph unicode="N" d="M531 701h234v-701h-234l-375 434v120l411 -476h120v545h-78v-475l-411 475h-120v-545h78v236l78 -90v-224h-234v701h234l297 -343v343z" />
<glyph unicode="O" horiz-adv-x="903" d="M382 732q79 0 148 -30t121 -82t82 -121.5t30 -148.5t-30 -148.5t-82 -121t-121 -81.5t-148 -30t-148.5 30t-121.5 81.5t-82 121t-30 148.5t30 148.5t82 121.5t121.5 82t148.5 30zM382 46q63 0 118.5 24t96.5 65t65 96.5t24 118.5t-24 118.5t-65 97t-96.5 65.5t-118.5 24 t-119 -24t-97 -65.5t-65 -97t-24 -118.5t24 -118.5t65 -96.5t97 -65t119 -24zM382 578q47 0 88.5 -18t72 -49t48.5 -72.5t18 -88.5t-18 -88.5t-48.5 -72t-72 -48.5t-88.5 -18t-88.5 18t-72.5 48.5t-49 72t-18 88.5t18 88.5t49 72.5t72.5 49t88.5 18zM382 200q31 0 58.5 12 t47.5 32t32 47.5t12 58.5t-12 59t-32 48t-47.5 32t-58.5 12q-32 0 -59.5 -12t-47.5 -32t-32 -48t-12 -59t12 -58.5t32 -47.5t47.5 -32t59.5 -12z" />
<glyph unicode="P" horiz-adv-x="865" d="M571 701q40 0 75.5 -15.5t61.5 -41.5t41.5 -62t15.5 -76t-15.5 -75.5t-41.5 -62t-61.5 -42t-75.5 -15.5l-493 1v-234h78v156h77v-234h-233v390l571 -1q24 0 45 9.5t37 25t25 37t9 45.5t-9 45.5t-25 37.5t-37 25t-45 9h-493v-78h493q15 -1 26 -12t11 -27t-11 -27t-28 -12 h-1h-568v234h571z" />
<glyph unicode="Q" horiz-adv-x="987" d="M382 501q-32 0 -59.5 -12t-47.5 -32t-32 -48t-12 -59t12 -58.5t32 -47.5t47.5 -32t59.5 -12q42 0 75 20t53 52q28 -53 54 -93q10 -18 20 -35t18 -31t14 -23.5t7 -11.5h90q-2 3 -13.5 22t-23.5 40q-8 13 -16 26.5t-16 29.5q20 35 31 73.5t11 80.5q0 63 -24 118.5t-65 97 t-96.5 65.5t-118.5 24t-119 -24t-97 -65.5t-65 -97t-24 -118.5t24 -118.5t65 -96.5t97 -65t119 -24q37 0 73 9l40 -69q-57 -17 -113 -17q-79 0 -148.5 30t-121.5 81.5t-82 121t-30 148.5t30 148.5t82 121.5t121.5 82t148.5 30t148 -30t121 -82t82 -121.5t30 -148.5 q0 -81 -31 -150q22 -38 42 -74t37 -64q9 -17 18 -32.5t18 -29.5h-269q-2 4 -10.5 18.5t-21 36t-27 46.5t-29.5 50q-49 -28 -108 -28q-47 0 -88.5 18t-72.5 48.5t-49 72t-18 88.5t18 88.5t49 72.5t72.5 49t88.5 18t88.5 -18t72 -49t48.5 -72.5t18 -88.5q0 -38 -12 -72l-48 82 q-19 32 -35.5 59t-19.5 32q-21 23 -50 36.5t-62 13.5z" />
<glyph unicode="R" horiz-adv-x="909" d="M499 0l-91 157h-175v-157h-233v390l572 -1q24 0 45.5 9.5t37.5 25t25 37t9 45.5t-9 45.5t-25 37.5t-37.5 25t-45.5 9h-494v-78h494q16 -1 26.5 -12t10.5 -27t-10.5 -27t-26.5 -12h-1h-1h-570v234h572q40 0 76 -15.5t62 -41.5t41.5 -62t15.5 -76t-15.5 -75.5t-41.5 -62 t-62 -42t-76 -15.5l-494 1v-234h78v157h297q12 -22 27 -47.5t28.5 -49t23.5 -40t12 -20.5h90q-3 4 -12.5 20t-22 38.5t-27.5 48.5t-29 50h90q25 -43 49 -85t44 -75l43 -75h-270z" />
<glyph unicode="S" horiz-adv-x="907" d="M587 311h-167.5h-113.5t-70 0.5t-37 0.5h-15.5h-4.5h-2q-38 3 -70 19.5t-56 42.5t-37.5 60t-13.5 72q0 40 15.5 76t41.5 62t61.5 41.5t76.5 15.5h420q31 0 59 -12t48.5 -32.5t32.5 -48.5t12 -60v-81h-569h-1h-1q-17 1 -27.5 12t-10.5 27t10.5 27t26.5 12h494v2 q0 32 -22 54t-54 22h-418q-24 0 -45.5 -9t-37 -25t-25 -37.5t-9.5 -45.5q0 -45 29.5 -77.5t72.5 -38.5h168.5h113.5t70 -0.5t37.5 -0.5h15.5h5q37 -3 69.5 -19.5t56.5 -43t37.5 -60.5t13.5 -71q0 -41 -15.5 -76.5t-41.5 -61.5t-61.5 -41.5t-75.5 -15.5h-421q-32 0 -59.5 12 t-48 32.5t-32.5 48t-12 59.5v82h573q18 -1 27.5 -13t9.5 -26t-9.5 -26t-27.5 -13h-495v-2q0 -32 22 -54t54 -22h419q24 0 45 9t37 24.5t25.5 37t9.5 46.5q0 22 -8 42t-22 35.5t-32.5 25.5t-40.5 13z" />
<glyph unicode="T" d="M0 701h765v-234h-188v78h110v78h-609v-78h266l-1 -467h78v467h78v-545h-234v467h-265v234z" />
<glyph unicode="U" horiz-adv-x="899" d="M759 379q0 -78 -30 -147t-81.5 -120.5t-120.5 -81.5t-148 -30q-77 0 -145 28.5t-119 78t-81.5 116t-33.5 143.5v335h229v-322q0 -31 12 -58.5t32 -47.5t47.5 -32t58.5 -12t58 11.5t47 31t32 46.5t13 57v326h76v-322q0 -47 -17.5 -88t-48.5 -71.5t-72 -48.5t-88 -18 q-46 0 -87 17.5t-71.5 48t-48.5 71t-18 87.5h-1v247h-75v-250q1 -62 25 -115.5t65 -94t95 -63.5t116 -23q63 0 117.5 23.5t95.5 64.5t64.5 96t23.5 117v322h79v-322z" />
<glyph unicode="V" horiz-adv-x="1000" d="M900 701q-6 -9 -26 -44.5t-49.5 -86.5t-65.5 -113.5t-72 -125.5q-43 -75 -90 -157.5t-101 -173.5h-90q3 5 20 34.5t42.5 74.5t57.5 100.5t65 112.5q38 67 81.5 142t92.5 159h-90q-47 -81 -86 -148t-75 -130.5t-73 -127.5t-80 -139q-1 2 -17.5 30t-42 72t-58 100 t-66 113.5t-65.5 113t-57 98.5t-40 69.5l-15 26.5h270l136 -234l-45 -78l-136 234h-90q5 -8 22.5 -38t41 -70.5t50 -86.5t50 -86.5t40.5 -70t22 -37.5l196 340l73 127h270z" />
<glyph unicode="W" horiz-adv-x="1450" d="M1350 701q-6 -9 -26 -44.5t-49.5 -86.5t-65.5 -113.5t-72 -125.5q-43 -75 -90 -157.5t-101 -173.5h-90l-79 135q-15 27 -30.5 54t-29.5 51t-25 42.5t-17 29.5q-35 -61 -67 -116.5t-57 -100.5q-14 -26 -28 -49.5t-27 -45.5h-90q1 3 12.5 23t29.5 51.5t40.5 71t46.5 81 t47 81.5t42.5 73.5t33 56t17.5 29.5q1 -1 11 -18t26 -44.5t36 -62.5t41 -71l112 -193q18 31 41 71t48.5 84.5t52 90.5t51.5 89l121 210h-90q-33 -58 -62 -108.5t-55.5 -97t-52.5 -91t-53 -90.5l-112 190l-115 197q-47 -81 -85.5 -148.5t-75 -131t-73.5 -127.5t-80 -138 q-1 2 -17.5 30t-42 72t-58 100t-66 113.5t-65.5 113t-57 98.5t-40 69.5l-15 26.5h270l136 -234l-45 -78l-136 234h-90q5 -8 22.5 -38t41 -70.5t50 -86.5t50 -86.5t40.5 -70t22 -37.5l196 340l73 127h90q2 -4 13.5 -24t28 -48.5t36.5 -62.5t39.5 -67t36.5 -62t28 -46 q42 72 74.5 128.5t55.5 98.5l48 83h270z" />
<glyph unicode="X" horiz-adv-x="908" d="M768 701l-242 -350l242 -351h-283l-101 146l-101 -146h-283l337 488l-93 135h-95l93 -135l-47 -68l-195 281h284l148 -213l-283 -410h93l142 205l142 -205h94l-189 273l188 272h-95l-45 -66l-48 69l54 75h283z" />
<glyph unicode="Y" horiz-adv-x="868" d="M485 701h283l-267 -384v-317h-234v315l-267 386h284l56 -82l-46 -69l-50 73h-95l196 -283l1 -1v-261h80v262l193 283h-95l-140 -203l-45 64l146 217v0z" />
<glyph unicode="Z" horiz-adv-x="908" d="M768 701l-322 -467h319v-234h-765l376 546h96l-323 -468h538v77l-390 1l322 467h-541v-78h202l-54 -78h-226v234h768z" />
<glyph unicode="[" horiz-adv-x="478" d="M338 837v-234h-87q-13 0 -13 -14v-481q0 -13 13 -13h87v-234h-141q-41 0 -77 15.5t-62.5 42t-42 62.5t-15.5 77v617q0 33 12.5 62.5t34.5 51.5t51.5 35t62.5 13h21v-78h-26q-32 0 -55 -23t-23 -55h1v-630q0 -23 9 -43.5t24 -35.5t35.5 -24t43.5 -9h69v78h-47 q-23 0 -38.5 15.5t-15.5 38.5v556q0 23 15.5 38.5t38.5 15.5h47v156h78z" />
<glyph unicode="\" horiz-adv-x="987" d="M180 684l442 -746h90l-487 822h-179l-46 78h270l577 -979h-270l-486 825h89z" />
<glyph unicode="]" horiz-adv-x="478" d="M78 837v-156h47q23 0 38.5 -15.5t15.5 -38.5v-556q0 -23 -15.5 -38.5t-38.5 -15.5h-47v-78h69q23 0 43.5 9t35.5 24t24 35.5t9 43.5v630h1q0 32 -23 55t-55 23h-26v78h21q33 0 62.5 -13t51.5 -35t34.5 -51.5t12.5 -62.5v-617q0 -41 -15.5 -77t-42 -62.5t-62.5 -42 t-77 -15.5h-141v234h87q13 0 13 13v481q0 14 -13 14h-87v234h78z" />
<glyph unicode="a" horiz-adv-x="1040" d="M539 312l136 -234h90q-5 8 -22.5 37.5t-41.5 70.5t-50.5 86.5t-50 86.5t-40.5 70.5t-21 37.5l-196 -340l-73 -127h-270q6 9 26 44.5t49.5 86.5t65.5 113.5t72 125.5q43 75 90 157.5t101 173.5h90l-186 -322l-173 -301h90q46 81 85 148.5t75.5 130.5t73.5 127t80 139 q1 -2 17.5 -30t42 -72t57.5 -100t65.5 -113.5t65.5 -113t57 -98.5t40.5 -69.5l15.5 -26.5h-270l-136 234z" />
<glyph unicode="b" d="M687 350q36 -26 57 -66.5t21 -88.5q0 -41 -15.5 -76.5t-41.5 -61.5t-62 -41.5t-76 -15.5h-570v390h233v-1v-155h337q16 -1 26.5 -12t10.5 -27t-10.5 -27t-26.5 -12h-414v156h-78v-234h492h1q24 0 45 9t37 25t25 37.5t9 45.5q0 23 -8.5 43.5t-23.5 36t-35 25.5t-43 11 h-266v78h263q24 1 44.5 10.5t35.5 25t24 36.5t9 45t-9 45.5t-25 37.5t-37 25t-45 9h-1h-492v-78h492q16 -1 26.5 -12t10.5 -27t-10.5 -27t-26.5 -12h-570v234h570q40 0 76 -15.5t62 -41.5t41.5 -62t15.5 -76q0 -48 -21 -88.5t-57 -67.5z" />
<glyph unicode="c" d="M765 466h-430q-22 -2 -41 -12t-33 -25.5t-22 -36t-8 -42.5q0 -23 8 -42.5t22 -35t33 -25.5t41 -13h274v-78h-274q-38 3 -71 19t-57.5 42.5t-38.5 60.5t-14 73q0 37 13.5 71t37.5 60t56 42.5t70 19.5h356v79h-352v-1q-54 -3 -100.5 -25.5t-81.5 -59t-55 -84.5t-20 -103 q0 -54 20 -102.5t55 -85t81.5 -59t100.5 -25.5h352v156h78v-234h-430q-70 3 -131 31.5t-106.5 76t-71.5 109.5t-26 133t26 133.5t71.5 109.5t106.5 75.5t131 31.5l430 1v-235z" />
<glyph unicode="d" horiz-adv-x="865" d="M430 701q70 -3 131 -31.5t106.5 -76t71.5 -110t26 -132.5q0 -71 -26 -133.5t-71.5 -110t-106.5 -76t-131 -31.5h-430v545h430q38 -3 71 -19t57.5 -42.5t38.5 -60.5t14 -73q0 -38 -13.5 -71.5t-37.5 -60t-56.5 -43t-69.5 -19.5h-278v246h78v-168l196 1q45 4 74.5 37 t29.5 78q0 38 -21.5 67.5t-55.5 42.5q-13 5 -23.5 6t-30.5 1h-325v-389h352q54 3 100.5 25.5t81.5 59t55 85t20 103.5q0 54 -20 102.5t-55 85t-81.5 59t-100.5 25.5h-430v78h430z" />
<glyph unicode="e" d="M765 467h-531v-78h394v-78h-472v234h531v78h-609v-545h609v78h-531v78h609v-234h-765v701h765v-234z" />
<glyph unicode="f" horiz-adv-x="865" d="M765 467h-531v-78h394v-78h-472v234h531v78h-609v-545h78v156h78v-234h-234v701h765v-234z" />
<glyph unicode="g" horiz-adv-x="906" d="M766 390v-390h-431q-70 3 -131 31.5t-106.5 76t-71.5 109.5t-26 133t26 133.5t71.5 110t106.5 76t131 31.5h431v-235h-431q-45 -4 -74.5 -37t-29.5 -78q0 -46 29.5 -78.5t74.5 -38.5h274v-78h-274q-38 3 -71 19t-57.5 42.5t-38.5 60.5t-14 73q0 37 13.5 71t37.5 60.5 t56 43t70 19.5h356v78h-352q-54 -3 -100.5 -25.5t-81.5 -59.5t-55 -85t-20 -103q0 -54 20 -102.5t55 -85t81.5 -59t100.5 -25.5h352v234h-369v78h448z" />
<glyph unicode="h" d="M531 701h234v-701h-234v233h-453v-155h78v78h78v-156h-234v312h610v-234h77v545h-77v-234h-454v234h-78v-234h-78v312h234v-234h297v234z" />
<glyph unicode="i" horiz-adv-x="374" d="M0 0v701h234v-545h-78v467h-78v-545h156v-78h-234z" />
<glyph unicode="j" horiz-adv-x="899" d="M759 701l-1 -335q-3 -77 -33.5 -143.5t-81.5 -116t-119 -78t-145 -28.5q-78 0 -147 30t-120.5 81.5t-81.5 120.5t-30 147v90h333v-76h-255v-14q0 -62 23.5 -117t64.5 -96t96 -64.5t117 -23.5t116.5 23t95 63.5t64.5 94t25 115.5v250h-75v-247q0 -47 -18 -87.5t-49 -71 t-72 -48t-87 -17.5q-39 0 -74 12.5t-63.5 34.5t-49 52t-30.5 65h81q17 -39 53.5 -63.5t82.5 -24.5q31 0 58.5 12t47.5 32t32 47.5t12 58.5v322h230z" />
<glyph unicode="k" horiz-adv-x="903" d="M442 295l321 -295h-345l-262 240l406 383h-113l-293 -283v283h-78v-545h138l86 -78h-302v701h234v-172l184 172h341l-489 -460l178 -163h115l-178 164z" />
<glyph unicode="l" horiz-adv-x="909" d="M78 234h691v-234h-769v78h692v78h-692v545h234v-390h-78v312h-78v-389z" />
<glyph unicode="m" horiz-adv-x="1084" d="M696 701h248v-701h-234v262l-149 -262h-179l-227 398v147l273 -467h88l272 467v-467h78v545h-125l-271 -468l-267 468h-125v-545h77v147l78 -134v-91h-233v701h248l224 -397z" />
<glyph unicode="n" d="M531 701h234v-701h-234l-375 434v120l411 -476h120v545h-78v-475l-411 475h-120v-545h78v236l78 -90v-224h-234v701h234l297 -343v343z" />
<glyph unicode="o" horiz-adv-x="903" d="M382 732q79 0 148 -30t121 -82t82 -121.5t30 -148.5t-30 -148.5t-82 -121t-121 -81.5t-148 -30t-148.5 30t-121.5 81.5t-82 121t-30 148.5t30 148.5t82 121.5t121.5 82t148.5 30zM382 46q63 0 118.5 24t96.5 65t65 96.5t24 118.5t-24 118.5t-65 97t-96.5 65.5t-118.5 24 t-119 -24t-97 -65.5t-65 -97t-24 -118.5t24 -118.5t65 -96.5t97 -65t119 -24zM382 578q47 0 88.5 -18t72 -49t48.5 -72.5t18 -88.5t-18 -88.5t-48.5 -72t-72 -48.5t-88.5 -18t-88.5 18t-72.5 48.5t-49 72t-18 88.5t18 88.5t49 72.5t72.5 49t88.5 18zM382 200q31 0 58.5 12 t47.5 32t32 47.5t12 58.5t-12 59t-32 48t-47.5 32t-58.5 12q-32 0 -59.5 -12t-47.5 -32t-32 -48t-12 -59t12 -58.5t32 -47.5t47.5 -32t59.5 -12z" />
<glyph unicode="p" horiz-adv-x="865" d="M571 701q40 0 75.5 -15.5t61.5 -41.5t41.5 -62t15.5 -76t-15.5 -75.5t-41.5 -62t-61.5 -42t-75.5 -15.5l-493 1v-234h78v156h77v-234h-233v390l571 -1q24 0 45 9.5t37 25t25 37t9 45.5t-9 45.5t-25 37.5t-37 25t-45 9h-493v-78h493q15 -1 26 -12t11 -27t-11 -27t-28 -12 h-1h-568v234h571z" />
<glyph unicode="q" horiz-adv-x="987" d="M382 501q-32 0 -59.5 -12t-47.5 -32t-32 -48t-12 -59t12 -58.5t32 -47.5t47.5 -32t59.5 -12q42 0 75 20t53 52q28 -53 54 -93q10 -18 20 -35t18 -31t14 -23.5t7 -11.5h90q-2 3 -13.5 22t-23.5 40q-8 13 -16 26.5t-16 29.5q20 35 31 73.5t11 80.5q0 63 -24 118.5t-65 97 t-96.5 65.5t-118.5 24t-119 -24t-97 -65.5t-65 -97t-24 -118.5t24 -118.5t65 -96.5t97 -65t119 -24q37 0 73 9l40 -69q-57 -17 -113 -17q-79 0 -148.5 30t-121.5 81.5t-82 121t-30 148.5t30 148.5t82 121.5t121.5 82t148.5 30t148 -30t121 -82t82 -121.5t30 -148.5 q0 -81 -31 -150q22 -38 42 -74t37 -64q9 -17 18 -32.5t18 -29.5h-269q-2 4 -10.5 18.5t-21 36t-27 46.5t-29.5 50q-49 -28 -108 -28q-47 0 -88.5 18t-72.5 48.5t-49 72t-18 88.5t18 88.5t49 72.5t72.5 49t88.5 18t88.5 -18t72 -49t48.5 -72.5t18 -88.5q0 -38 -12 -72l-48 82 q-19 32 -35.5 59t-19.5 32q-21 23 -50 36.5t-62 13.5z" />
<glyph unicode="r" horiz-adv-x="909" d="M499 0l-91 157h-175v-157h-233v390l572 -1q24 0 45.5 9.5t37.5 25t25 37t9 45.5t-9 45.5t-25 37.5t-37.5 25t-45.5 9h-494v-78h494q16 -1 26.5 -12t10.5 -27t-10.5 -27t-26.5 -12h-1h-1h-570v234h572q40 0 76 -15.5t62 -41.5t41.5 -62t15.5 -76t-15.5 -75.5t-41.5 -62 t-62 -42t-76 -15.5l-494 1v-234h78v157h297q12 -22 27 -47.5t28.5 -49t23.5 -40t12 -20.5h90q-3 4 -12.5 20t-22 38.5t-27.5 48.5t-29 50h90q25 -43 49 -85t44 -75l43 -75h-270z" />
<glyph unicode="s" horiz-adv-x="907" d="M587 311h-167.5h-113.5t-70 0.5t-37 0.5h-15.5h-4.5h-2q-38 3 -70 19.5t-56 42.5t-37.5 60t-13.5 72q0 40 15.5 76t41.5 62t61.5 41.5t76.5 15.5h420q31 0 59 -12t48.5 -32.5t32.5 -48.5t12 -60v-81h-569h-1h-1q-17 1 -27.5 12t-10.5 27t10.5 27t26.5 12h494v2 q0 32 -22 54t-54 22h-418q-24 0 -45.5 -9t-37 -25t-25 -37.5t-9.5 -45.5q0 -45 29.5 -77.5t72.5 -38.5h168.5h113.5t70 -0.5t37.5 -0.5h15.5h5q37 -3 69.5 -19.5t56.5 -43t37.5 -60.5t13.5 -71q0 -41 -15.5 -76.5t-41.5 -61.5t-61.5 -41.5t-75.5 -15.5h-421q-32 0 -59.5 12 t-48 32.5t-32.5 48t-12 59.5v82h573q18 -1 27.5 -13t9.5 -26t-9.5 -26t-27.5 -13h-495v-2q0 -32 22 -54t54 -22h419q24 0 45 9t37 24.5t25.5 37t9.5 46.5q0 22 -8 42t-22 35.5t-32.5 25.5t-40.5 13z" />
<glyph unicode="t" d="M0 701h765v-234h-188v78h110v78h-609v-78h266l-1 -467h78v467h78v-545h-234v467h-265v234z" />
<glyph unicode="u" horiz-adv-x="899" d="M759 379q0 -78 -30 -147t-81.5 -120.5t-120.5 -81.5t-148 -30q-77 0 -145 28.5t-119 78t-81.5 116t-33.5 143.5v335h229v-322q0 -31 12 -58.5t32 -47.5t47.5 -32t58.5 -12t58 11.5t47 31t32 46.5t13 57v326h76v-322q0 -47 -17.5 -88t-48.5 -71.5t-72 -48.5t-88 -18 q-46 0 -87 17.5t-71.5 48t-48.5 71t-18 87.5h-1v247h-75v-250q1 -62 25 -115.5t65 -94t95 -63.5t116 -23q63 0 117.5 23.5t95.5 64.5t64.5 96t23.5 117v322h79v-322z" />
<glyph unicode="v" horiz-adv-x="1000" d="M900 701q-6 -9 -26 -44.5t-49.5 -86.5t-65.5 -113.5t-72 -125.5q-43 -75 -90 -157.5t-101 -173.5h-90q3 5 20 34.5t42.5 74.5t57.5 100.5t65 112.5q38 67 81.5 142t92.5 159h-90q-47 -81 -86 -148t-75 -130.5t-73 -127.5t-80 -139q-1 2 -17.5 30t-42 72t-58 100 t-66 113.5t-65.5 113t-57 98.5t-40 69.5l-15 26.5h270l136 -234l-45 -78l-136 234h-90q5 -8 22.5 -38t41 -70.5t50 -86.5t50 -86.5t40.5 -70t22 -37.5l196 340l73 127h270z" />
<glyph unicode="w" horiz-adv-x="1450" d="M1350 701q-6 -9 -26 -44.5t-49.5 -86.5t-65.5 -113.5t-72 -125.5q-43 -75 -90 -157.5t-101 -173.5h-90l-79 135q-15 27 -30.5 54t-29.5 51t-25 42.5t-17 29.5q-35 -61 -67 -116.5t-57 -100.5q-14 -26 -28 -49.5t-27 -45.5h-90q1 3 12.5 23t29.5 51.5t40.5 71t46.5 81 t47 81.5t42.5 73.5t33 56t17.5 29.5q1 -1 11 -18t26 -44.5t36 -62.5t41 -71l112 -193q18 31 41 71t48.5 84.5t52 90.5t51.5 89l121 210h-90q-33 -58 -62 -108.5t-55.5 -97t-52.5 -91t-53 -90.5l-112 190l-115 197q-47 -81 -85.5 -148.5t-75 -131t-73.5 -127.5t-80 -138 q-1 2 -17.5 30t-42 72t-58 100t-66 113.5t-65.5 113t-57 98.5t-40 69.5l-15 26.5h270l136 -234l-45 -78l-136 234h-90q5 -8 22.5 -38t41 -70.5t50 -86.5t50 -86.5t40.5 -70t22 -37.5l196 340l73 127h90q2 -4 13.5 -24t28 -48.5t36.5 -62.5t39.5 -67t36.5 -62t28 -46 q42 72 74.5 128.5t55.5 98.5l48 83h270z" />
<glyph unicode="x" horiz-adv-x="908" d="M768 701l-242 -350l242 -351h-283l-101 146l-101 -146h-283l337 488l-93 135h-95l93 -135l-47 -68l-195 281h284l148 -213l-283 -410h93l142 205l142 -205h94l-189 273l188 272h-95l-45 -66l-48 69l54 75h283z" />
<glyph unicode="y" horiz-adv-x="868" d="M485 701h283l-267 -384v-317h-234v315l-267 386h284l56 -82l-46 -69l-50 73h-95l196 -283l1 -1v-261h80v262l193 283h-95l-140 -203l-45 64l146 217v0z" />
<glyph unicode="z" horiz-adv-x="908" d="M768 701l-322 -467h319v-234h-765l376 546h96l-323 -468h538v77l-390 1l322 467h-541v-78h202l-54 -78h-226v234h768z" />
<glyph unicode="&#xad;" d="M765 233h-765v234h609v-78h-532v-78h610v156h78v-234z" />
<glyph unicode="&#x2000;" horiz-adv-x="424" />
<glyph unicode="&#x2001;" horiz-adv-x="849" />
<glyph unicode="&#x2002;" horiz-adv-x="424" />
<glyph unicode="&#x2003;" horiz-adv-x="849" />
<glyph unicode="&#x2004;" horiz-adv-x="283" />
<glyph unicode="&#x2005;" horiz-adv-x="212" />
<glyph unicode="&#x2006;" horiz-adv-x="141" />
<glyph unicode="&#x2007;" horiz-adv-x="141" />
<glyph unicode="&#x2008;" horiz-adv-x="106" />
<glyph unicode="&#x2009;" horiz-adv-x="169" />
<glyph unicode="&#x200a;" horiz-adv-x="47" />
<glyph unicode="&#x2010;" d="M765 233h-765v234h609v-78h-532v-78h610v156h78v-234z" />
<glyph unicode="&#x2011;" d="M765 233h-765v234h609v-78h-532v-78h610v156h78v-234z" />
<glyph unicode="&#x2012;" d="M765 233h-765v234h609v-78h-532v-78h610v156h78v-234z" />
<glyph unicode="&#x2013;" d="M765 233h-765v234h609v-78h-532v-78h610v156h78v-234z" />
<glyph unicode="&#x2014;" d="M765 233h-765v234h609v-78h-532v-78h610v156h78v-234z" />
<glyph unicode="&#x201c;" horiz-adv-x="665" d="M333 260q-20 15 -30 36t-12 43.5t4.5 45t21.5 40.5l99 121h101l-70 -85q9 -4 18 -8.5t17 -11.5q19 -15 29.5 -36t12.5 -43.5t-4.5 -45t-21.5 -40.5q-15 -20 -36 -30t-43.5 -12t-45 4.5t-40.5 21.5zM437 326q11 12 9.5 28t-14.5 26q-12 11 -28 9.5t-27 -14.5 q-10 -12 -8.5 -28t14.5 -27q12 -10 28 -8.5t26 14.5zM43 260q-19 15 -29.5 36t-13 43.5t4.5 45t22 40.5l99 121h101l-70 -85q9 -4 18 -8.5t17 -11.5q19 -15 29.5 -36t12.5 -43.5t-4.5 -45t-21.5 -40.5q-15 -20 -36 -30t-43.5 -12t-45 4.5t-40.5 21.5zM147 326q11 12 9.5 28 t-14.5 26q-13 11 -28.5 9.5t-26.5 -14.5q-10 -12 -8.5 -28t14.5 -27q12 -10 28 -8.5t26 14.5z" />
<glyph unicode="&#x201d;" horiz-adv-x="665" d="M192 519q19 -15 29.5 -36t12.5 -43.5t-4.5 -45t-21.5 -40.5l-100 -121h-100l70 85q-20 8 -35 20q-19 15 -29.5 36t-13 43.5t4.5 45t22 40.5q15 19 36 29.5t43.5 12.5t45 -4.5t40.5 -21.5zM87 453q-10 -12 -8.5 -28t14.5 -26q12 -11 28 -9.5t26 14.5q11 13 9.5 28.5 t-14.5 26.5q-13 10 -28.5 8.5t-26.5 -14.5zM482 519q19 -15 29.5 -36t12.5 -43.5t-4.5 -45t-21.5 -40.5l-99 -121h-101l70 85q-19 7 -35 20q-20 15 -30 36t-12 43.5t4.5 45t21.5 40.5q15 19 36 29.5t43.5 12.5t45 -4.5t40.5 -21.5zM377 453q-10 -12 -8.5 -28t14.5 -26 q12 -11 28 -9.5t26 14.5q11 13 9.5 28.5t-14.5 26.5q-12 10 -28 8.5t-27 -14.5z" />
<glyph unicode="&#x201e;" horiz-adv-x="665" d="M192 208q19 -15 29.5 -36t12.5 -43.5t-4.5 -45t-21.5 -40.5l-100 -121h-100l70 85q-17 5 -35 20q-19 15 -29.5 36t-13 43.5t4.5 45t22 40.5q15 19 36 29.5t43.5 12.5t45 -4.5t40.5 -21.5zM87 142q-10 -13 -8.5 -28.5t14.5 -26.5q12 -10 28 -8.5t26 14.5q11 12 9.5 28 t-14.5 26q-13 11 -28.5 9.5t-26.5 -14.5zM482 208q19 -15 29.5 -36t12.5 -43.5t-4.5 -45t-21.5 -40.5l-99 -121h-101l70 85q-16 4 -35 20q-20 15 -30 36t-12 43.5t4.5 45t21.5 40.5q15 19 36 29.5t43.5 12.5t45 -4.5t40.5 -21.5zM377 142q-10 -13 -8.5 -28.5t14.5 -26.5 q12 -10 28 -8.5t26 14.5q11 12 9.5 28t-14.5 26q-12 11 -28 9.5t-27 -14.5z" />
<glyph unicode="&#x2026;" horiz-adv-x="999" d="M117 235q24 0 45.5 -9.5t37.5 -25.5t25.5 -37.5t9.5 -45.5t-9.5 -45.5t-25.5 -37.5t-37.5 -25t-45.5 -9t-45.5 9t-37.5 25t-25 37.5t-9 45.5t9 45.5t25 37.5t37.5 25.5t45.5 9.5zM117 78q17 0 28 11.5t11 27.5q0 17 -11 28t-28 11q-16 0 -27.5 -11t-11.5 -28 q0 -16 11.5 -27.5t27.5 -11.5zM429 234q24 0 45.5 -9.5t37.5 -25.5t25.5 -37.5t9.5 -45.5t-9.5 -45.5t-25.5 -37t-37.5 -25t-45.5 -9.5t-45.5 9.5t-37.5 25t-25 37t-9 45.5t9 45.5t25 37.5t37.5 25.5t45.5 9.5zM429 78q17 0 28 11t11 27q0 17 -11 28t-28 11q-16 0 -27.5 -11 t-11.5 -28q0 -16 11.5 -27t27.5 -11zM742 234q24 0 45.5 -9.5t37.5 -25.5t25 -37.5t9 -45.5t-9 -45.5t-25 -37t-37.5 -25t-45.5 -9.5t-45.5 9.5t-37.5 25t-25.5 37t-9.5 45.5t9.5 45.5t25.5 37.5t37.5 25.5t45.5 9.5zM742 78q16 0 27.5 11t11.5 27q0 17 -11.5 28t-27.5 11 q-17 0 -28 -11t-11 -28q0 -16 11 -27t28 -11z" />
<glyph unicode="&#x202f;" horiz-adv-x="169" />
<glyph unicode="&#x205f;" horiz-adv-x="212" />
<glyph unicode="&#x20ac;" horiz-adv-x="906" d="M238 311q11 -31 37 -52t60 -25h431v-234h-431q-70 3 -131 31.5t-106.5 76t-71.5 109.5t-26 133t26 133.5t71.5 110t106.5 76t131 31.5h431v-234h-573q25 33 61 54t81 24h352v78l-352 -1v1q-54 -3 -100.5 -25.5t-81.5 -59.5t-55 -85t-20 -103q0 -54 20 -102.5t55 -85 t81.5 -59t100.5 -25.5h352v78h-356q-38 3 -70 19.5t-56 42.5t-37.5 60t-13.5 72q0 24 4 39h501v-78h-421z" />
<glyph unicode="&#x25fc;" horiz-adv-x="700" d="M0 700h700v-700h-700v700z" />
</font>
</defs>
</svg>
